<?xml version="1.0" encoding="UTF-8" standalone="no"?>
<!-- Created with Inkscape (http://www.inkscape.org/) -->

<svg
   xmlns:dc="http://purl.org/dc/elements/1.1/"
   xmlns:cc="http://creativecommons.org/ns#"
   xmlns:rdf="http://www.w3.org/1999/02/22-rdf-syntax-ns#"
   xmlns:svg="http://www.w3.org/2000/svg"
   xmlns="http://www.w3.org/2000/svg"
   xmlns:sodipodi="http://sodipodi.sourceforge.net/DTD/sodipodi-0.dtd"
   xmlns:inkscape="http://www.inkscape.org/namespaces/inkscape"
   version="1.1"
   id="svg109"
   width="465"
   height="75"
   viewBox="0 0 465 75"
   sodipodi:docname="treeline.svg"
   inkscape:version="0.92.2 5c3e80d, 2017-08-06">
  <metadata
     id="metadata115">
    <rdf:RDF>
      <cc:Work
         rdf:about="">
        <dc:format>image/svg+xml</dc:format>
        <dc:type
           rdf:resource="http://purl.org/dc/dcmitype/StillImage" />
        <dc:title></dc:title>
      </cc:Work>
    </rdf:RDF>
  </metadata>
  <defs
     id="defs113" />
  <sodipodi:namedview
     pagecolor="#ffffff"
     bordercolor="#666666"
     borderopacity="1"
     objecttolerance="10"
     gridtolerance="10"
     guidetolerance="10"
     inkscape:pageopacity="0"
     inkscape:pageshadow="2"
     inkscape:window-width="3840"
     inkscape:window-height="2088"
     id="namedview111"
     showgrid="false"
     inkscape:zoom="6.7935484"
     inkscape:cx="256.75146"
     inkscape:cy="86.459568"
     inkscape:window-x="1920"
     inkscape:window-y="35"
     inkscape:window-maximized="1"
     inkscape:current-layer="svg109" />
  <path
     style="fill:none;fill-opacity:1;stroke:#000000;stroke-opacity:1"
     d="m 26.614779,-22.319789 3.083028,2.87998 3.083028,2.879979 h 1.21993 1.219931 l 2.282671,-2.429792 2.28267,-2.429791 2.209657,2.568879 2.209657,2.568879 2.181987,-2.773946 2.181986,-2.773946 v -0.900325 -0.900326 l -1.934259,1.035184 -1.934258,1.035184 -1.315742,-0.04004 -1.315741,-0.04004 3,-1.585122 3,-1.585122 1.886627,-1.62484 1.886627,-1.624841 1.207811,-2.832667 1.207811,-2.832666 1.276882,3.082666 1.276881,3.082667 h 1.79809 1.7981 l 5.60788,-5.125292 5.60789,-5.125292 3.62515,3.732703 3.62516,3.732704 3.09754,1.88885 3.09755,1.888851 -2.37244,0.0037 -2.37245,0.0037 1.37245,1.691958 1.37244,1.691959 -1.5,-0.853209 -1.5,-0.853209 2.32313,2.553542 2.32312,2.553541 -1.32312,0.491284 -1.32313,0.491284 1.90381,0.782436 1.90381,0.782436 3.35997,-3.666364 3.35997,-3.666363 2.84371,3.182664 2.84371,3.182665 1.813437,-2.767655 1.81344,-2.767655 -1.42093,-0.899344 -1.420927,-0.899344 1.009447,-0.01531 1.00946,-0.01531 1.22591,-1.963 1.22591,-1.963 -1.73536,0.632565 -1.73537,0.632566 1.90499,-2.169566 1.90499,-2.169565 -2.40499,-0.03543 -2.404987,-0.03544 2.286707,-1.269394 2.28671,-1.269395 3.44028,-4.838822 3.44027,-4.838823 0.40152,-0.40152 0.40152,-0.401519 2.60976,4.453217 2.60976,4.453216 2.76173,2.166189 2.76174,2.166189 -2.31476,-0.49755 -2.31477,-0.497551 1.66849,2.546441 1.66849,2.54644 -1.20349,-0.743801 -1.2035,-0.7438 1.13496,2.120677 1.13495,2.120677 1.21481,0.01531 1.21482,0.01531 -1.3443,0.851986 -1.3443,0.851986 1.56964,3.035349 1.56964,3.035349 3.39273,3.597352 3.39274,3.597352 h 0.95761 0.95761 l 2.39338,-2.547634 2.39338,-2.547633 0.1027,-2.346196 0.10271,-2.346196 2.67823,-3.182896 2.67823,-3.182896 v -0.942326 -0.942327 l -2.75,0.57611 -2.75,0.576109 2.16601,-1.307057 2.16601,-1.307058 1.93466,-2.5 1.93466,-2.5 1.07038,-3 1.07039,-3 0.0789,1.348871 0.079,1.348871 1.66996,3.519189 1.66997,3.519189 3.08003,1.97444 3.08004,1.974439 -2.75,-0.611551 -2.75,-0.611552 v 0.568712 0.568712 l 1.46301,2.829159 1.46302,2.829158 1.45423,0.558039 1.45422,0.558039 0.63999,-1.667781 0.63999,-1.667781 -1.13036,-0.376786 -1.13035,-0.376785 2.24744,-2.392291 2.24743,-2.392285 h -1.19737 -1.19737 l 1.55066,-2.366605 1.55066,-2.366606 -2.7776,0.416408 -2.77761,0.416408 2.63342,-1.520655 2.63341,-1.520655 3.72261,-5.608355 3.72262,-5.608355 3.34653,4.969309 3.34652,4.969308 2.68231,2.109899 2.6823,2.109899 h -2.33486 -2.33486 l 1.2,1.2 1.2,1.2 v 0.859017 0.859017 l -1.15451,-0.713526 -1.15451,-0.713525 0.80662,1.404509 0.80661,1.404508 1.50288,1.75 1.50289,1.75 h -1.18067 -1.18067 l 1.63265,3.157205 1.63266,3.157204 4.39302,4.696501 4.39303,4.6965003 v 0.61491 0.61491 l -1.67361,-0.642224 -1.67361,-0.642223 0.62268,1.622681 0.62268,1.622681 -1.5654,-0.600703 -1.56541,-0.600703 1.10835,2.070961 1.10834,2.07096 -1.12419,0.374729 -1.12418,0.374729 1.65785,3.205941 1.65786,3.205941 h 0.90152 0.90151 l 2.89652,-3.51398296 2.89653,-3.51398404 2.24026,-3.986016 2.24027,-3.9860173 h -1.08704 -1.08704 l 1.52656,-2.329826 1.52657,-2.329826 -0.64601,-0.646008 -0.64601,-0.646008 1.31713,-1.587048 1.31713,-1.587048 -2.62864,0.659747 -2.62864,0.659746 4.74177,-4.846864 4.74176,-4.846865 1.53903,-2.43194 1.53902,-2.431939 3.16927,4.606366 3.16926,4.606367 3.25396,2.673501 3.25395,2.673502 -2.25,-0.504309 -2.25,-0.504309 v 0.57764 0.57764 l 1.69393,1.871775 1.69394,1.871775 -1.94394,-0.703164 -1.94393,-0.703163 2.42431,2.660129 2.42432,2.660129 h -1.17432 -1.17431 v 0.8042193 0.80422 l 3.03645,4.787978 3.03644,4.78797804 1.57321,-1.305646 1.57321,-1.30564704 -1.15139,-0.383797 -1.1514,-0.383797 1.16419,-1.402754 1.16418,-1.402754 -2.37245,-0.0037 -2.37244,-0.0037 3.5,-2.083887 3.5,-2.083887 3,-3.4712533 3,-3.471254 3.86765,4.094036 3.86764,4.0940363 2.73326,1.413423 2.73326,1.413423 2.14136,-1.499865 2.14136,-1.499866 1.08092,-2.0197203 1.08092,-2.019721 -2.32319,1.449159 -2.32318,1.4491583 -3.27004,0.600855 -3.27004,0.600855 4.02004,-3.8241723 4.02004,-3.824172 v -1.19002 -1.19002 l -1.93426,1.035184 -1.93426,1.035108 -1.31574,-0.0037 -1.31574,-0.0037 3.04262,-1.855448 3.04262,-1.855447 2.70738,-3.21754 2.70738,-3.21754 7.9e-4,-1.673274 7.9e-4,-1.673275 2.10767,4.257998 2.10767,4.257998 4.14154,2.482542 4.14154,2.482541 -2.05,0.0095 -2.05,0.0095 -1.2,-1.2 -1.2,-1.2 v 0.74966 0.74966 l 1.41469,2.735702 1.41468,2.735702 2.68669,1.43787 2.68668,1.4378693 3.39863,-3.7085463 3.39863,-3.708702 v -0.876013 -0.876013 l -2.75,0.469935 -2.75,0.469936 3.73339,-3.167721 3.73339,-3.167722 0.76661,-1.341315 0.76661,-1.341314 5,4.555499 5,4.555499 -2.75,-0.516399 -2.75,-0.516398 v 0.805564 0.805565 l 2.36053,2.744281 2.36053,2.744281 5.48523,-5.187697 5.48522,-5.187696 1.80604,1.995648 1.80603,1.995647 1.41415,-1.173636 1.41414,-1.173635 1.43407,-2.773173 1.43406,-2.773173 v -0.608603 -0.608677 l -1.25,0.730911 -1.25,0.730912 1.5979,-1.921895 1.59789,-1.921894 0.80661,-1.404508 0.80662,-1.404509 -1.40451,0.801213 -1.40451,0.801213 1.25,-1.346705 1.25,-1.346704 v -0.8 -0.8 h -1.63486 -1.63486 l 2.63557,-2.073136 2.63556,-2.073136 2.62664,-4.482024 2.62665,-4.482024 1.97224,3.30516 1.97223,3.30516 3.09658,3.25 3.09658,3.25 h -1.85115 -1.85116 l 1.80998,2 1.80998,2 h -1.32931 -1.3293 l 2.42432,2.660129 2.42431,2.660129 -1.76179,-0.633268 -1.76179,-0.633269 1.59661,3.087499 1.59661,3.087499 4.04254,4.38564 4.04254,4.385641 h -1.68638 -1.68637 l 0.72306,1.169939 0.72306,1.1699383 -1.79021,-0.686969 -1.79022,-0.6869703 1.6295,2.4869223 1.62949,2.486922 -1.60439,-0.61566 -1.60438,-0.615661 1.62674,3.14577 1.62674,3.14576904 h 0.47144 0.47144 l 3.84283,-3.47177104 3.84284,-3.47177 2.84714,2.97177 2.84713,2.971771 h 0.82761 0.82761 l 1.98156,-3.25 1.98156,-3.25 0.004,-0.800891 0.003,-0.800892 -3.34439,2.550892 -3.34439,2.550891 h -0.7592 -0.7592 l 3.10359,-3.534796 3.10359,-3.5347963 v -0.826532 -0.826532 l -2.75,0.406528 -2.75,0.406529 3.71912,-2.05325 3.71913,-2.05325 1.03087,-1.926209 1.03088,-1.926209 v -0.622446 -0.622445 l -2.22251,1.556704 -2.2225,1.556704 h -1.70057 -1.70057 l 2.92307,-2.923077 2.92308,-2.923077 v -1.095975 -1.095975 l -2.75,0.626975 -2.75,0.626976 2.5,-1.812032 2.5,-1.812032 1.29637,-1.545892 1.29637,-1.545891 1.04564,-2.733302 1.04563,-2.733301 2.20238,4.164763 2.20238,4.164762 0.98435,0.328117 0.98435,0.328117 1.72126,-2.91387 1.72127,-2.91387 v -0.654725 -0.654725 l -1.25,0.730911 -1.25,0.730912 1.75,-2.000635 1.75,-2.000635 v -0.730277 -0.730276 l -1.10373,0.682141 -1.10372,0.68214 1.66849,-2.54644 1.66849,-2.546441 -2.16673,0.566612 -2.16672,0.566612 4.54515,-4.676616 4.54515,-4.676616 0.6242,-1.966679 0.6242,-1.966679 h 0.86522 0.86522 l 0.6242,1.966679 0.6242,1.966679 4.54515,4.676616 4.54515,4.676616 -2.16672,-0.566612 -2.16673,-0.566612 1.66849,2.546441 1.66849,2.54644 -1.10372,-0.68214 -1.10373,-0.682141 v 0.936572 0.936573 l 1.54733,1.284173 1.54734,1.284174 -1.02764,0.635117 -1.02764,0.635117 2.61756,3.953154 2.61756,3.953154 3.11275,3.400277 3.11274,3.400278 -1.86134,-0.661618 -1.86134,-0.661618 0.56041,1.460413 0.56041,1.460413 -1.69907,-0.618638 -1.69907,-0.618638 2,2.339131 2,2.339131 -1.75,-0.638181 -1.75,-0.63818 v 0.909598 0.909598 l 1.08641,0.671436 1.0864,0.671436 3.4136,-3.308586 3.41359,-3.308586 3.25,3.064487 3.25,3.064487 2,1.101271 2,1.101272 -1.87244,0.03041 -1.87245,0.03041 1.37245,1.6919583 1.37244,1.691959 -1.40451,-0.846467 -1.40451,-0.846467 0.87639,1.404509 0.87639,1.404508 0.21128,1.397442 0.21127,1.397441 1.48221,1.482209 1.48221,1.48220804 2.71277,-0.680862 2.71277,-0.68086204 2.79494,-2.794942 2.79494,-2.794942 3.00699,3.006988 3.00699,3.006987 2.40333,-1.57472 2.40332,-1.57472 1.60514,-3.31425 1.60514,-3.3142503 -0.44247,-0.442473 -0.44248,-0.442473 -2.24605,2.0456463 -2.24606,2.045647 -2.5,1.245035 -2.5,1.245035 4.25,-4.407923 4.25,-4.4079243 v -0.731201 -0.7312 l -2.75,0.582172 -2.75,0.582172 2,-1.196966 2,-1.196967 2.75,-2.553245 2.75,-2.553244 v -0.753606 -0.753606 l -2.75,1.434536 -2.75,1.434537 -1.5,-0.01608 -1.5,-0.01608 2.13296,-1.727764 2.13296,-1.727758 1.11704,-2.184259 1.11704,-2.184258 v -0.600925 -0.600926 l -1.93426,1.035184 -1.93426,1.035184 h -0.79358 -0.79359 l 3.58942,-2.958701 3.58942,-2.9587 1.29398,-3.123966 1.29399,-3.123966 1.30455,3.102602 1.30455,3.102602 3.28989,3.089604 3.28989,3.089604 -2.18426,-1.10954 -2.18426,-1.109539 h -0.59142 -0.59142 l 1.51997,2.939296 1.51997,2.939295 2.22821,1.560705 2.22822,1.560704 h -2 -2 l -2.28717,-1.601999 -2.28718,-1.601999 -0.41233,0.412331 -0.41233,0.412332 1.53939,2.197786 1.53939,2.197786 3.68761,2.042695 3.68761,2.042696 -3.25768,-0.52735 -3.25768,-0.527349 1.62269,2.476535 1.62269,2.476536 h 0.71068 0.71067 l 2.24691,-2.391722 2.2469,-2.391722 0.3509,-1.858278 0.3509,-1.858278 0.20151,-0.25 0.20151,-0.25 0.15846,-1.25 0.15846,-1.25 -0.67979,-0.5 -0.67978,-0.5 4.46051,-3.875601 4.4605,-3.875601 2.84725,2.727837 2.84725,2.727837 4.67683,-4.310954 4.67684,-4.310953 1.8895,2.458717 1.8895,2.458718 m -31.16121,24.7500003 -0.29384,-1.75 -2.97907,-2.6876 -2.97906,-2.6876013 -0.35196,0.351954 -0.35195,0.351954 1.20952,2.3356473 1.20952,2.335646 1.52649,1.75 1.52649,1.75 h 0.88884 0.88885 z m -184.79384,-0.08948 v -0.839485 l -2.55639,-1.164768 -2.55639,-1.164769 0.61541,-0.995746 0.6154,-0.995747 h -2.33651 -2.33651 l -2.35588,-1.6501233 -2.35588,-1.650123 0.46188,1.400123 0.46189,1.400123 4.24923,3.2500003 4.24923,3.25 h 1.92226 1.92226 z M 51.204681,-17.257801 l -0.376905,-0.376905 -2.657603,1.210885 -2.657604,1.210885 1.255538,0.775966 1.255538,0.775965 1.77897,-1.609946 1.778971,-1.609946 z m 93.364639,-4.502018 v -0.851366 l -3,1.55136 -3,1.55136 v 0.807653 0.807654 l 0.67581,0.675813 0.67582,0.675813 2.32418,-2.183461 2.32419,-2.18346 z m 11,3.109592 v -0.972368 l -1.75,-0.620614 -1.75,-0.620615 -1.89551,-1.598001 -1.89551,-1.598 1.13896,2.172023 1.13896,2.172024 1.58717,1.587168 1.58717,1.587167 0.91938,-0.568208 0.91938,-0.568208 z m 327.5,-5.909598 0.61803,-1 h -2.11803 -2.11803 l 0.61803,1 0.61803,1 h 0.88197 0.88197 z m -421.007077,-1.988546 0.61096,-0.988545 -1.55194,0.595534 -1.55194,0.595535 v 0.393011 0.393011 h 0.94098 0.94099 z"
     id="path185"
     inkscape:connector-curvature="0"
     sodipodi:nodetypes="cccccccccccccccccccccccccccccccccccccccccccccccccccccccccccccccccccccccccccccccccccccccccccccccccccccccccccccccccccccccccccccccccccccccccccccccccccccccccccccccccccccccccccccccccccccccccccccccccccccccccccccccccccccccccccccccccccccccccccccccccccccccccccccccccccccccccccccccccccccccccccccccccccccccccccccccccccccccccccccccccccccccccccccccccccccccccccccccccccccccccccccccccccccccccccccccccccccccccccccccccccccccccccccccccccccccccccccccccccccccccccccccccccccccccccccccccccccccccccccccccccccccccccccccccccccccccccccccccccccccccccccccccccccccccccccccccccccccccccccccccccccccccccccccccccccccccccccccccccccccccccccccccccccccccccccccccccccccccccc" />
</svg>
